<svg xmlns="http://www.w3.org/2000/svg" data-testid="logo-realtor-real-estate-2" viewBox="0 0 800 205"><path fill="#06274C" d="M105.2 163.2 86 128.3h-5.4v34.9H58.1V70.8h37.7c7.3 0 13.5 1.3 18.6 3.8 5.2 2.5 9 6.1 11.5 10.4 2.5 4.5 3.8 9.4 3.8 14.8s-1.7 11.6-5.2 16.5c-3.4 4.9-8.6 8.3-15.4 10.2l21.3 36.6h-25.5l.3.1Zm-24.6-50.8h14c4.1 0 7.2-1 9.3-3 2-2 3.1-4.9 3.1-8.6 0-3.7-1-6.3-3.1-8.3-2-2-5.2-3-9.3-3h-14v22.9ZM205 131.8h-50.9c.3 4.6 1.8 8.1 4.5 10.4 2.6 2.4 5.8 3.6 9.5 3.6 5.6 0 9.5-2.3 11.7-7.1h24c-1.2 4.9-3.4 9.2-6.7 13-3.2 3.8-7.2 6.9-12 9.1-4.9 2.2-10.2 3.3-16.2 3.3s-13.6-1.5-19.2-4.7c-5.7-3-10-7.5-13.2-13.2-3.1-5.7-4.8-12.3-4.8-20 0-7.7 1.5-14.3 4.7-20 3.1-5.7 7.5-10.1 13-13.2 5.6-3 12-4.7 19.3-4.7 7.3 0 13.5 1.5 18.9 4.5 5.6 2.9 9.8 7.3 12.9 12.7 3.1 5.6 4.7 11.9 4.7 19.3s-.1 4.3-.4 6.6h.1l.1.4Zm-22.6-12.4c0-3.8-1.3-6.9-3.9-9.2-2.6-2.3-6-3.4-9.9-3.4-3.9 0-7 1.1-9.5 3.3-2.6 2.2-4.1 5.3-4.8 9.3h28.1Zm34.1-13c2.8-5.7 6.8-10.1 11.6-13.2 5-3 10.4-4.7 16.5-4.7s9.7 1 13.7 3.1c3.9 2.1 6.9 4.9 9 8.3V89.5h22.5v73.4h-22.5v-10.4c-2.2 3.4-5.3 6.2-9.1 8.3-3.9 2.1-8.4 3.1-13.7 3.1-5.3 0-11.4-1.5-16.3-4.7-5-3.1-8.8-7.6-11.6-13.3-2.8-5.8-4.2-12.4-4.2-19.9 0-7.5 1.4-14.2 4.2-19.8h-.1v.2Zm46.1 6.7c-3.1-3.2-6.9-4.9-11.4-4.9s-8.3 1.6-11.4 4.8c-3.1 3.2-4.7 7.6-4.7 13.3 0 5.7 1.5 10.1 4.7 13.4 3.1 3.3 6.9 5 11.4 5s8.3-1.6 11.4-4.9c3.1-3.2 4.7-7.7 4.7-13.3 0-5.6-1.5-10-4.7-13.3v-.1Zm58.4-42v92.1h-22.5V71.1H321Z"/><path fill="#72B7FF" d="M352.1 88.8v18.7h30.1v17.4h-30.1v20.2h34.1v18h-56.5V70.7h56.5v18h-34.1v.1Zm54.9 72.1c-5-2.2-8.9-5.2-11.8-9-2.9-3.8-4.6-8.1-4.9-12.8h22.3c.3 2.5 1.4 4.7 3.5 6.2 2.1 1.6 4.7 2.3 7.8 2.3 3.1 0 5-.5 6.5-1.6s2.3-2.5 2.3-4.2c0-1.7-1.1-3.6-3.3-4.7-2.2-1-5.8-2.1-10.6-3.3-5.3-1.2-9.6-2.5-13.2-3.8-3.6-1.3-6.6-3.5-9.1-6.5-2.5-2.9-3.8-6.9-3.8-11.9s1.1-8.1 3.4-11.5c2.3-3.4 5.8-6.2 10.2-8.2 4.6-2 9.9-3 16.1-3 9.2 0 16.5 2.3 21.7 6.9 5.3 4.6 8.4 10.6 9.1 18.2h-20.8c-.3-2.5-1.5-4.6-3.3-6.1-1.9-1.5-4.3-2.2-7.4-2.2-3.1 0-4.7.5-6.1 1.5-1.4 1-2.1 2.4-2.1 4.1 0 1.7 1.1 3.6 3.3 4.8 2.2 1 5.8 2.1 10.4 3.1 5.5 1.4 9.9 2.8 13.3 4.1 3.4 1.3 6.5 3.5 9 6.6 2.6 3 3.9 7.1 4 12.1 0 4.3-1.2 8.1-3.6 11.5-2.4 3.3-5.9 6.1-10.4 8-4.6 1.9-9.7 2.9-15.7 2.9s-12.1-1.1-17.1-3.3h.3v-.2Zm99.4-16.9v19.1H495c-8.2 0-14.6-2-19.1-6-4.5-4-6.9-10.5-6.9-19.5v-29.2h-8.9V89.7h8.9V71.4h22.5v18.3h14.8v18.7h-14.8v29.4c0 2.2.5 3.7 1.6 4.8 1 1 2.8 1.4 5.3 1.4h8.1-.1Zm9.8-37.6c2.8-5.7 6.8-10.1 11.6-13.2 5-3 10.4-4.7 16.5-4.7s9.7 1 13.7 3.1c3.9 2.1 6.9 4.9 9 8.3V89.5h22.5v73.4H567v-10.4c-2.2 3.4-5.3 6.2-9.1 8.3-3.9 2.1-8.4 3.1-13.7 3.1-5.3 0-20.3-3.4-27.9-18-3-5.7-4.2-12.4-4.2-19.9 0-7.5 1.4-14.2 4.2-19.8h-.1v.2Zm46 6.7c-3.1-3.2-6.9-4.9-11.4-4.9s-8.3 1.6-11.4 4.8c-3.1 3.2-4.7 7.6-4.7 13.3 0 5.7 1.5 10.1 4.7 13.4 3.1 3.3 6.9 5 11.4 5s8.3-1.6 11.4-4.9c3.1-3.2 4.7-7.7 4.7-13.3 0-5.6-1.5-10-4.7-13.3v-.1Zm158.5 18.7h-50.9c.3 4.6 1.8 8.1 4.5 10.4 2.6 2.4 5.8 3.6 9.5 3.6 5.6 0 9.5-2.3 11.7-7.1h24c-1.2 4.9-3.4 9.2-6.7 13-3.2 3.8-7.2 6.9-12 9.1-4.9 2.2-10.2 3.3-16.2 3.3s-13.6-1.5-19.2-4.7c-5.7-3-10-7.5-13.2-13.2-3.1-5.7-4.8-12.3-4.8-20 0-7.7 1.5-14.3 4.7-20 3.1-5.7 7.5-10.1 13-13.2 5.6-3 12-4.7 19.3-4.7 7.3 0 13.5 1.5 18.9 4.5 5.6 2.9 9.8 7.3 12.9 12.7 3.1 5.6 4.7 11.9 4.7 19.3s-.1 4.3-.4 6.6h.1l.1.4Zm-22.6-12.4c0-3.8-1.3-6.9-3.9-9.2-2.6-2.3-6-3.4-9.9-3.4-3.9 0-7 1.1-9.5 3.3-2.6 2.2-4.1 5.3-4.8 9.3h28.1Z"/><path fill="#06274C" d="M30.6 163.9c7.843 0 14.2-6.358 14.2-14.2s-6.357-14.2-14.2-14.2c-7.842 0-14.2 6.358-14.2 14.2s6.358 14.2 14.2 14.2Z"/><path fill="#72B7FF" d="M754.1 73.2V42.7h-23v13.6L688.7 25c0-.1-84.3 46.9-84.3 46.9l.3.6v17.2h-8.9v18.7h8.9v29.2c0 9 2.3 15.6 6.9 19.5 4.6 3.9 10.9 6 19.1 6h11.4V144h-8c-2.4 0-4.2-.5-5.3-1.4-1-1-1.6-2.5-1.6-4.8v-29.4H642V89.7h-14.8v-4.3L687 52.1l62.1 45.8V152l-26.5.3.2 22.9 49.1-.5V86.4L754 73.2h.1Z"/></svg>