<svg width="115" height="18" viewBox="0 0 115 18" fill="none" xmlns="http://www.w3.org/2000/svg">
<path d="M60.9837 5.94653C58.2341 5.94653 55.791 8.0301 55.791 11.4687C55.791 14.9073 58.2108 16.9909 60.9837 16.9909C63.7565 16.9909 66.1763 14.8841 66.1763 11.4455C66.1763 8.00691 63.7565 5.95117 60.9837 5.95117V5.94653ZM62.7161 15.8957C62.2191 16.4154 61.5782 16.6057 60.9837 16.6057C60.3891 16.6057 59.725 16.4154 59.228 15.8957C58.4709 15.0883 58.0901 13.5987 58.0901 11.464C58.0901 9.32943 58.4709 7.79344 59.2512 7.0324C59.725 6.53587 60.3891 6.32241 60.9837 6.32241C61.5782 6.32241 62.2145 6.51267 62.7161 7.0324C63.4964 7.812 63.8772 9.30623 63.8772 11.464C63.8772 13.6219 63.4731 15.1115 62.7161 15.8957Z" fill="#1A1816"/>
<path d="M74.0489 7.34331C74.0489 6.89319 73.9049 6.58692 73.6913 6.35025C73.4312 6.09039 73.0039 5.94653 72.5069 5.94653C71.6988 5.94653 71.1786 6.2528 70.7513 6.61012C70.2775 7.06024 69.827 7.65423 69.4694 8.76794H69.3997C69.3997 8.60088 69.4461 6.4477 69.4461 6.32705C69.4461 6.25744 69.3997 6.18319 69.2789 6.18319H65.9581V6.39666C66.2414 6.41986 66.5294 6.44306 66.7895 6.63332C67.0031 6.77718 67.1703 6.99064 67.2167 7.29691C67.2864 7.60318 67.2864 8.48023 67.2864 8.86075V13.9049C67.2864 14.5221 67.2632 15.1625 67.1935 15.5848C67.0495 16.0581 66.887 16.2252 66.5526 16.3922C66.3389 16.4851 66.102 16.5361 65.9116 16.5593V16.7727H70.8209V16.5593C70.6073 16.5361 70.4401 16.5129 70.2264 16.4154C70.036 16.3458 69.8967 16.1788 69.7527 15.9189C69.5391 15.4688 69.4229 14.9722 69.4229 13.7889V12.6706C69.4229 11.9884 69.4369 11.3248 69.5205 10.6473C69.7388 8.87931 70.6305 7.21803 71.2715 7.21803C71.5548 7.21803 71.722 7.50109 71.8892 7.90481C72.0796 8.35494 72.3165 8.50808 73.0039 8.50808C73.6913 8.50808 74.0489 7.96514 74.0489 7.34796V7.34331Z" fill="#1A1816"/>
<path d="M80.7926 16.3226C80.0355 16.3226 79.3714 16.0164 78.9441 15.543C78.2799 14.8098 77.8061 13.5523 77.8061 11.2552C77.8061 8.9582 78.2799 7.56142 78.9441 6.89783C79.3482 6.54052 79.8916 6.32705 80.4861 6.32705C81.5543 6.32705 81.9073 6.73077 82.1953 8.0069C82.316 8.81435 82.6922 9.26447 83.3796 9.26447C83.9974 9.26447 84.4015 8.935 84.4015 8.29461C84.4015 7.82128 84.1646 7.34796 83.7605 6.99064C83.2171 6.4477 82.3625 5.94653 80.5139 5.94653C77.69 5.94653 75.5117 8.38742 75.5117 11.4687C75.5117 13.6497 76.292 15.0233 77.3138 15.8771C78.0941 16.5407 79.1159 16.9909 80.5139 16.9909C82.7666 16.9909 84.0949 15.4966 84.6151 13.5801L84.2575 13.4595C83.8766 14.6892 82.9756 16.3273 80.7973 16.3273L80.7926 16.3226Z" fill="#1A1816"/>
<path d="M90.5975 5.94653C87.8479 5.94653 85.4048 8.0301 85.4048 11.4687C85.4048 14.9073 87.8246 16.9909 90.5975 16.9909C93.3703 16.9909 95.7901 14.8841 95.7901 11.4455C95.7901 8.00691 93.3703 5.95117 90.5975 5.95117V5.94653ZM92.3299 15.8957C91.8329 16.4154 91.192 16.6057 90.5975 16.6057C90.0029 16.6057 89.3388 16.4154 88.8418 15.8957C88.0847 15.0883 87.7039 13.5987 87.7039 11.464C87.7039 9.32943 88.0847 7.79344 88.865 7.0324C89.3388 6.53587 90.0029 6.32241 90.5975 6.32241C91.192 6.32241 91.8283 6.51267 92.3299 7.0324C93.1102 7.812 93.491 9.30623 93.491 11.464C93.491 13.6219 93.0869 15.1115 92.3299 15.8957Z" fill="#1A1816"/>
<path d="M112.181 15.5612C112.088 15.1807 112.06 14.5914 112.06 13.951V9.0692C112.06 7.88588 111.823 7.14805 111.303 6.67472C110.829 6.20139 110.235 5.94153 109.218 5.94153C108.293 5.94153 107.629 6.17819 107.035 6.60511C106.515 6.96243 106.064 7.45896 105.66 8.40562H105.59C105.544 7.59818 105.307 7.10164 104.926 6.69792C104.476 6.20139 103.788 5.94153 102.841 5.94153C101.819 5.94153 101.108 6.20139 100.588 6.62832C100.045 7.00884 99.6406 7.52857 99.3062 8.35921H99.2133C99.2133 8.23856 99.2597 6.43806 99.2597 6.32204C99.2597 6.22923 99.2365 6.17819 99.1157 6.17819H95.7949V6.39165C96.0782 6.41485 96.3894 6.46126 96.603 6.60511C96.8167 6.72576 96.9328 6.93459 97.0071 7.2687C97.0768 7.59818 97.0768 8.23856 97.0768 8.85574V13.8071C97.0768 14.4939 97.0768 15.1111 97.0071 15.5148C96.9142 16.0346 96.7006 16.2248 96.2733 16.3919C96.1061 16.4615 95.8459 16.5589 95.6555 16.5821V16.7724H100.588V16.5589C100.207 16.5125 99.9239 16.4151 99.7335 16.2527C99.543 16.1088 99.4269 15.8953 99.3526 15.5891C99.2319 15.1389 99.2319 14.545 99.2319 13.8118V11.7468C99.2319 10.6562 99.3015 9.92305 99.5616 9.18986C99.9889 7.98334 100.723 6.97635 101.837 6.97635C102.502 6.97635 102.952 7.21302 103.235 7.70955C103.403 8.06686 103.519 8.58659 103.519 9.25018V13.8118C103.519 14.545 103.496 15.2317 103.375 15.6587C103.328 15.9649 103.184 16.1784 102.924 16.3223C102.734 16.4429 102.497 16.5125 102.167 16.5589V16.7724H106.956V16.5821C106.649 16.5357 106.436 16.4383 106.245 16.3455C105.985 16.1784 105.841 15.9185 105.725 15.5891C105.632 15.2318 105.655 14.6192 105.655 13.9092V11.7514C105.655 10.5913 105.725 9.80704 105.962 9.17129C106.412 7.91373 107.221 6.98099 108.261 6.98099C108.832 6.98099 109.255 7.19445 109.52 7.59817C109.78 8.00189 109.9 8.54483 109.9 9.27802V13.8164C109.9 14.5496 109.9 15.19 109.808 15.5937C109.738 15.9 109.594 16.1366 109.357 16.3037C109.167 16.4476 108.93 16.494 108.6 16.5636V16.777H113.463V16.5868C113.226 16.5636 113.012 16.4661 112.799 16.3965C112.441 16.2294 112.302 16.016 112.181 15.5659V15.5612Z" fill="#1A1816"/>
<path d="M54.2535 16.178C53.162 16.178 52.8787 15.6815 52.8787 14.8044L52.9251 6.70215H55.5819V6.18241H52.9251V2.60461H52.6186C52.1031 4.81812 50.7701 6.10817 49.2095 6.34947V6.70679H50.7933C50.7933 6.70679 50.7468 14.2661 50.7468 14.5028C50.7468 15.403 50.914 15.9738 51.411 16.3961C51.8847 16.7998 52.456 16.9901 53.4035 16.9901C54.7319 16.9901 55.6562 16.3033 56.1531 15.4726L55.9859 15.3056C55.5586 15.8764 54.9409 16.1826 54.2535 16.1826V16.178Z" fill="#1A1816"/>
<path d="M73.7906 16.9759C74.4397 16.8228 74.8417 16.173 74.6885 15.5245C74.5353 14.876 73.8849 14.4743 73.2358 14.6274C72.5867 14.7805 72.1847 15.4303 72.3379 16.0788C72.4911 16.7273 73.1415 17.129 73.7906 16.9759Z" fill="#1A1816"/>
<path d="M114.443 7.79836C114.434 7.71019 114.401 7.64986 114.331 7.62202C114.438 7.57097 114.471 7.4828 114.471 7.39463C114.471 7.22293 114.341 7.13013 114.136 7.13013H113.732V8.08606H113.899V7.7009H114.159C114.252 7.7009 114.285 7.73339 114.29 7.84012L114.299 7.93756C114.299 8.00253 114.308 8.04894 114.336 8.08606H114.503C114.475 8.03502 114.461 8.00253 114.457 7.93756L114.447 7.79836H114.443ZM114.15 7.5524H113.895V7.28326H114.136C114.243 7.28326 114.303 7.32966 114.303 7.41783C114.303 7.506 114.248 7.5524 114.155 7.5524H114.15Z" fill="#1A1816"/>
<path d="M114.085 6.73047C113.565 6.73047 113.166 7.12491 113.166 7.62144C113.166 8.11797 113.57 8.51241 114.085 8.51241C114.601 8.51241 115 8.11797 115 7.62144C115 7.12491 114.596 6.73047 114.085 6.73047ZM114.085 8.33143C113.667 8.33143 113.351 8.02052 113.351 7.6168C113.351 7.21308 113.667 6.89753 114.085 6.89753C114.503 6.89753 114.814 7.21308 114.814 7.6168C114.814 8.02052 114.499 8.33143 114.085 8.33143Z" fill="#1A1816"/>
<path d="M48.875 16.3689C48.6149 16.2483 48.3548 16.0395 48.2341 15.5383C48.1876 15.181 48.1876 14.7587 48.1876 14.2111V2.60064C48.1876 1.77 48.2108 1.20386 48.2108 0.730534C48.2108 0.609882 48.1644 0.563477 48.0436 0.563477H44.746V0.776941C45.1268 0.800144 45.3405 0.846545 45.5773 0.990399C45.7678 1.13425 45.8839 1.34772 45.9814 1.67719C46.0279 1.98347 46.0279 2.86051 46.0279 3.21783V14.2111C46.0279 14.7819 46.0279 15.232 45.935 15.6311C45.8421 16.0348 45.6052 16.2251 45.294 16.3643C45.1268 16.4571 44.8667 16.5313 44.6531 16.5545V16.768H49.5392V16.5545C49.3255 16.5313 49.0887 16.4617 48.875 16.3643V16.3689Z" fill="#D92228"/>
<path d="M25.3036 6.34525C25.0435 6.08538 24.6162 5.94153 24.1192 5.94153C23.3111 5.94153 22.7909 6.2478 22.3636 6.60511C21.8898 7.05524 21.4393 7.64922 21.0817 8.76293H21.012C21.012 8.59587 21.0584 6.4427 21.0584 6.32204C21.0584 6.25244 21.012 6.17819 20.8912 6.17819H17.5704V6.39165C17.8537 6.41485 18.1417 6.43806 18.4018 6.62832C18.6154 6.77217 18.7826 6.98563 18.8291 7.2919C18.8987 7.59817 18.8987 8.47523 18.8987 8.85574V13.8999C18.8987 14.5171 18.8755 15.1575 18.8058 15.5798C18.6619 16.0531 18.4993 16.2202 18.1649 16.3872C17.9512 16.48 17.7144 16.5311 17.5239 16.5543V16.7678H22.4333V16.5543C22.2196 16.5311 22.0524 16.5079 21.8387 16.4104C21.6483 16.3408 21.509 16.1738 21.365 15.9139C21.1514 15.4638 21.0352 14.9672 21.0352 13.7839V12.6656C21.0352 11.9834 21.0492 11.3198 21.1328 10.6423C21.3511 8.8743 22.2428 7.21301 22.8838 7.21301C23.1671 7.21301 23.3343 7.49608 23.5015 7.8998C23.6919 8.34993 23.9288 8.50306 24.6162 8.50306C25.3036 8.50306 25.6612 7.96013 25.6612 7.34295C25.6612 6.89282 25.5173 6.58655 25.3036 6.34989V6.34525Z" fill="#D92228"/>
<path d="M43.6544 16.3273C43.4408 16.0906 43.3943 15.6405 43.3943 14.5964V8.28997C43.3943 6.67973 41.8988 5.94653 39.7901 5.94653C38.6754 5.94653 37.1799 6.37346 36.59 7.03705C36.2835 7.34332 36.093 7.70063 36.093 8.17396C36.093 8.79114 36.5436 9.12061 37.087 9.12061C37.7744 9.12061 38.2017 8.81434 38.2249 7.9837C38.2481 7.32011 38.3689 6.86998 38.7451 6.61012C39.0284 6.41986 39.4093 6.30385 39.8366 6.30385C40.8305 6.30385 41.281 6.70757 41.281 7.93729V9.54754C41.2346 10.2807 40.524 10.9211 38.982 11.3712C37.844 11.7518 36.943 11.891 36.1859 12.601C35.689 13.0743 35.4985 13.7147 35.4985 14.3551C35.4985 16.0628 36.7804 16.9862 38.4385 16.9862C39.9805 16.9862 40.8352 16.2066 41.2114 15.4224H41.3043C41.3275 16.1556 41.4947 16.4897 41.8245 16.7264C42.0381 16.8702 42.419 16.9862 42.9159 16.9862C43.4129 16.9862 43.8541 16.8795 44.2117 16.7727V16.5639C44.2117 16.5639 44.2025 16.5639 44.1978 16.5639C43.961 16.5639 43.7705 16.4943 43.6544 16.3273ZM41.2578 14.3087C41.2346 15.5152 40.1431 16.2298 39.3117 16.2298C38.2667 16.2298 37.6768 15.6126 37.6768 14.1463C37.6768 13.4363 37.7976 12.9165 38.1041 12.5592C38.3875 12.2019 38.8844 11.942 39.6229 11.6358C40.1663 11.3759 40.8816 11.0418 41.2578 10.5452V14.3133V14.3087Z" fill="#D92228"/>
<path d="M34.4211 13.4548C33.9567 14.9583 32.9859 16.2994 31.012 16.2994C30.1342 16.2994 29.3539 16.0164 28.8058 15.3992C28.1648 14.6892 27.7608 13.2414 27.7608 11.4409C27.7608 11.2506 27.7608 11.1207 27.784 10.9304H34.7323C34.7787 10.6241 34.7787 10.1369 34.7787 9.87701C34.7787 8.07651 33.5201 5.94653 30.4871 5.94653C27.6911 5.94653 25.4385 8.26677 25.4385 11.5151C25.4385 13.1253 25.889 14.5453 26.934 15.5894C27.8351 16.5129 29.0427 16.9862 30.5615 16.9862C32.8002 16.9862 34.2168 15.6312 34.8252 13.5801H34.8205L34.4258 13.4548H34.4211ZM28.973 6.9628C29.3771 6.55908 29.9205 6.34561 30.515 6.34561C31.1792 6.34561 31.5833 6.53587 31.9595 6.86534C32.41 7.31547 32.6469 8.07187 32.6469 9.30624C32.6469 10.2297 32.5029 10.4199 31.7923 10.4199H27.8072C27.9512 8.8561 28.3785 7.48253 28.9684 6.9628H28.973Z" fill="#D92228"/>
<path d="M0 10.0528H2.22475V16.7583H12.3546V10.0528H14.5747L7.29662 2.57703L0.00462077 10.0528H0ZM7.94223 8.27088C8.20697 8.04814 8.59248 7.79291 9.20092 7.79291C9.56784 7.79291 9.87903 7.89964 10.0695 8.0899C10.2506 8.28944 10.3342 8.53075 10.3342 8.82774C10.3342 9.2593 10.0648 9.70015 9.54461 9.70015C9.02442 9.70015 8.83864 9.37531 8.70859 9.06904C8.59712 8.7999 8.49957 8.63284 8.34165 8.63284C7.93758 8.63284 7.31985 9.55166 7.15729 10.6932C7.14336 10.8788 7.12478 11.2965 7.12478 11.728V13.1573C7.12478 13.974 7.20837 14.3081 7.34771 14.6051C7.44524 14.7815 7.53349 14.8743 7.64032 14.916C7.7843 14.981 7.89114 14.9949 8.03512 15.0089H8.09551V15.2177H4.55634V15.0181L4.61669 15.0089C4.77925 14.9903 4.92325 14.9532 5.03936 14.8975C5.24837 14.7954 5.35055 14.6979 5.44344 14.387C5.49453 14.0668 5.50847 13.5842 5.50847 13.2362V9.80224C5.50847 9.54237 5.50845 8.93911 5.46201 8.73493C5.43414 8.55395 5.34591 8.41474 5.19264 8.31729C5.02544 8.19664 4.84428 8.17807 4.6492 8.16415H4.58882V7.95533H6.95758C7.08298 7.95533 7.13872 8.0435 7.13872 8.12239C7.13872 8.15951 7.13406 8.48435 7.12478 8.85559C7.12013 9.09225 7.1155 9.35212 7.11086 9.53774C7.36166 8.86487 7.66354 8.51683 7.92828 8.26624L7.94223 8.27088Z" fill="#D92228"/>
</svg>
