<svg xmlns="http://www.w3.org/2000/svg" data-testid="spot-calculator" viewBox="0 0 48 48"><path fill="#D92228" d="M8 5a3 3 0 0 1 3-3h26a3 3 0 0 1 3 3v38a3 3 0 0 1-3 3H11a3 3 0 0 1-3-3V5Z"/><circle cx="15" cy="21" r="2" fill="#fff"/><circle cx="15" cy="30" r="2" fill="#fff"/><circle cx="24" cy="21" r="2" fill="#fff"/><circle cx="24" cy="30" r="2" fill="#fff"/><circle cx="33" cy="21" r="2" fill="#fff"/><circle cx="33" cy="30" r="2" fill="#fff"/><circle cx="33" cy="39" r="2" fill="#fff"/><rect width="15" height="4" x="12" y="37" fill="#fff" rx="2"/><path fill="#fff" d="M12 8.4A2.4 2.4 0 0 1 14.4 6h19.2A2.4 2.4 0 0 1 36 8.4v4.2a2.4 2.4 0 0 1-2.4 2.4H14.4a2.4 2.4 0 0 1-2.4-2.4V8.4Z"/></svg>