<svg xmlns="http://www.w3.org/2000/svg" data-testid="spot-money-stack" viewBox="0 0 48 48"><path fill="#D92228" d="M10 39.95v-19.9c0-.58.47-1.05 1.05-1.05h34.9c.58 0 1.05.47 1.05 1.05v19.9c0 .58-.47 1.05-1.05 1.05h-34.9c-.58 0-1.05-.47-1.05-1.05Z"/><path fill="#fff" d="M35 30c0 4.418-2.91 8-6.5 8S22 34.418 22 30s2.91-8 6.5-8 6.5 3.582 6.5 8Z"/><path fill="#620F12" fill-rule="evenodd" d="M28.5 24a1 1 0 0 1 1 1v.07c.732.106 1.41.327 1.971.648C32.253 26.164 33 26.934 33 28a1 1 0 1 1-2 0c0-.038-.036-.269-.521-.546a3.395 3.395 0 0 0-.979-.354v1.95c.373.04.806.113 1.232.244.487.15 1.043.4 1.489.833.472.46.779 1.09.779 1.873 0 .784-.307 1.413-.78 1.873-.445.433-1 .683-1.488.833a6.83 6.83 0 0 1-1.232.244V35a1 1 0 1 1-2 0v-.07c-.732-.106-1.41-.327-1.971-.648C24.747 33.837 24 33.066 24 32a1 1 0 1 1 2 0c0 .039.036.269.521.546.257.147.59.272.979.354v-1.95a6.682 6.682 0 0 1-1.232-.244c-.487-.15-1.043-.4-1.489-.833A2.548 2.548 0 0 1 24 28c0-.784.307-1.413.78-1.873.445-.433 1-.683 1.488-.833a6.83 6.83 0 0 1 1.232-.244V25a1 1 0 0 1 1-1Zm-1 3.066a4.28 4.28 0 0 0-.643.14c-.325.1-.55.225-.683.355A.553.553 0 0 0 26 28c0 .216.068.337.174.44.133.129.358.254.683.354.212.066.433.11.643.14v-1.869Zm2 4v1.869a4.3 4.3 0 0 0 .643-.14c.325-.1.55-.226.683-.355A.553.553 0 0 0 31 32a.553.553 0 0 0-.174-.44c-.133-.129-.358-.254-.683-.354a4.3 4.3 0 0 0-.643-.14Z" clip-rule="evenodd"/><path fill="#fff" d="M18 29.5a2.5 2.5 0 1 1-5 0 2.5 2.5 0 0 1 5 0Zm26 0a2.5 2.5 0 1 1-5 0 2.5 2.5 0 0 1 5 0ZM16 41h-5a1 1 0 0 1-1-1v-5c2.549 0 6 3.451 6 6Zm25-22h5a1 1 0 0 1 1 1v5c-2.549 0-6-3.451-6-6Zm-31 6v-5a1 1 0 0 1 1-1h5c0 2.549-3.451 6-6 6Zm37 10v5a1 1 0 0 1-1 1h-5c0-2.549 3.451-6 6-6Z"/><path fill="#620F12" fill-rule="evenodd" d="M16.498 39c-.852-1.828-2.67-3.646-4.498-4.498-.682-.318-1.365-.502-2-.502v6a1 1 0 0 0 1 1h6c0-.635-.184-1.318-.502-2Zm-2.297 0a8.29 8.29 0 0 0-1-1.201 8.29 8.29 0 0 0-1.201-1V39h2.201Zm26.301-18c.852 1.828 2.67 3.646 4.498 4.498.682.318 1.365.502 2 .502v-6a1 1 0 0 0-1-1h-6c0 .635.184 1.318.502 2Zm2.297 0c.265.39.597.798 1 1.201s.81.735 1.201 1V21h-2.201ZM12 24.428c1.373-.728 2.7-2.055 3.428-3.428.359-.678.572-1.367.572-2h-5a1 1 0 0 0-1 1v5c.633 0 1.322-.213 2-.572Zm0-2.396A7.202 7.202 0 0 0 13.032 21H12v1.032Zm33 12.47c-1.828.852-3.646 2.67-4.498 4.498-.318.682-.502 1.365-.502 2h6a1 1 0 0 0 1-1v-6c-.635 0-1.318.184-2 .502Zm0 2.297a8.29 8.29 0 0 0-1.201 1 8.29 8.29 0 0 0-1 1.201H45v-2.201Z" clip-rule="evenodd"/><path fill="#D92228" d="M6 33.95v-19.9c0-.58.47-1.05 1.05-1.05h34.9c.58 0 1.05.47 1.05 1.05v19.9c0 .58-.47 1.05-1.05 1.05H7.05C6.47 35 6 34.53 6 33.95Z"/><path fill="#fff" d="M31 24c0 4.418-2.91 8-6.5 8S18 28.418 18 24s2.91-8 6.5-8 6.5 3.582 6.5 8Z"/><path fill="#620F12" fill-rule="evenodd" d="M24.5 18a1 1 0 0 1 1 1v.07c.732.106 1.41.327 1.971.648C28.253 20.164 29 20.934 29 22a1 1 0 1 1-2 0c0-.038-.036-.269-.521-.546a3.395 3.395 0 0 0-.979-.354v1.95c.373.04.806.113 1.232.244.487.15 1.043.4 1.489.833.472.46.779 1.09.779 1.873 0 .784-.307 1.413-.78 1.873-.445.433-1 .683-1.488.833a6.83 6.83 0 0 1-1.232.244V29a1 1 0 1 1-2 0v-.07c-.732-.106-1.41-.327-1.971-.648C20.747 27.836 20 27.066 20 26a1 1 0 1 1 2 0c0 .039.036.269.521.546.257.147.59.272.979.354v-1.95a6.682 6.682 0 0 1-1.232-.244c-.487-.15-1.043-.4-1.489-.833A2.548 2.548 0 0 1 20 22c0-.784.307-1.413.78-1.873.445-.433 1-.683 1.488-.833a6.83 6.83 0 0 1 1.232-.244V19a1 1 0 0 1 1-1Zm-1 3.066a4.28 4.28 0 0 0-.643.14c-.325.1-.55.225-.683.355A.553.553 0 0 0 22 22c0 .216.068.337.174.44.133.129.358.254.683.354.212.066.433.11.643.14v-1.869Zm2 4v1.869a4.3 4.3 0 0 0 .643-.14c.325-.1.55-.226.683-.356A.553.553 0 0 0 27 26a.553.553 0 0 0-.174-.44c-.133-.129-.358-.254-.683-.354a4.3 4.3 0 0 0-.643-.14Z" clip-rule="evenodd"/><path fill="#fff" d="M14 23.5a2.5 2.5 0 1 1-5 0 2.5 2.5 0 0 1 5 0Zm26 0a2.5 2.5 0 1 1-5 0 2.5 2.5 0 0 1 5 0ZM12 35H7a1 1 0 0 1-1-1v-5c2.549 0 6 3.451 6 6Zm25-22h5a1 1 0 0 1 1 1v5c-2.549 0-6-3.451-6-6ZM6 19v-5a1 1 0 0 1 1-1h5c0 2.549-3.451 6-6 6Zm37 10v5a1 1 0 0 1-1 1h-5c0-2.549 3.451-6 6-6Z"/><path fill="#620F12" fill-rule="evenodd" d="M12.498 33c-.852-1.828-2.67-3.646-4.498-4.498C7.318 28.183 6.635 28 6 28v6a1 1 0 0 0 1 1h6c0-.635-.184-1.318-.502-2Zm-2.297 0a8.287 8.287 0 0 0-1-1.201 8.289 8.289 0 0 0-1.201-1V33h2.201Z" clip-rule="evenodd"/><path fill="#620F12" fill-rule="evenodd" d="M38 35H11v-2h27v2Zm-1.498-20c.852 1.828 2.67 3.646 4.498 4.498.682.318 1.365.502 2 .502v-6a1 1 0 0 0-1-1h-6c0 .635.184 1.318.502 2Zm2.297 0c.265.39.597.798 1 1.201s.81.735 1.201 1V15h-2.201ZM8 18.428c1.373-.728 2.7-2.055 3.428-3.428.359-.678.572-1.367.572-2H7a1 1 0 0 0-1 1v5c.633 0 1.322-.213 2-.572Zm0-2.396A7.205 7.205 0 0 0 9.032 15H8v1.032Z" clip-rule="evenodd"/><path fill="#620F12" fill-rule="evenodd" d="M41 28.502c-1.828.852-3.646 2.67-4.498 4.498-.318.682-.502 1.365-.502 2h6a1 1 0 0 0 1-1v-6c-.635 0-1.318.184-2 .502Zm0 2.297a8.29 8.29 0 0 0-1.201 1 8.29 8.29 0 0 0-1 1.201H41v-2.201Z" clip-rule="evenodd"/><path fill="#620F12" fill-rule="evenodd" d="M43 18v13h-2V18h2Z" clip-rule="evenodd"/><path fill="#D92228" d="M1 27.95V8.05C1 7.47 1.47 7 2.05 7h34.9c.58 0 1.05.47 1.05 1.05v19.9c0 .58-.47 1.05-1.05 1.05H2.05C1.47 29 1 28.53 1 27.95Z"/><path fill="#fff" d="M32 7h5a1 1 0 0 1 1 1v5c-2.549 0-6-3.451-6-6ZM9 17.5a2.5 2.5 0 1 1-5 0 2.5 2.5 0 0 1 5 0ZM32.5 20a2.5 2.5 0 1 0 0-5 2.5 2.5 0 0 0 0 5ZM2 29h5c0-2.549-3.451-6-6-6v5a1 1 0 0 0 1 1ZM1 13V8a1 1 0 0 1 1-1h5c0 2.549-3.451 6-6 6Zm37 10v5a1 1 0 0 1-1 1h-5c0-2.549 3.451-6 6-6Zm-18.5 3c3.59 0 6.5-3.582 6.5-8s-2.91-8-6.5-8-6.5 3.582-6.5 8 2.91 8 6.5 8Z"/><path fill="#620F12" fill-rule="evenodd" d="M36 13.498c-1.828-.852-3.646-2.67-4.498-4.498C31.183 8.318 31 7.635 31 7h6a1 1 0 0 1 1 1v20a1 1 0 0 1-1 1H2a1 1 0 0 1-1-1v-6c.635 0 1.318.184 2 .502 1.828.852 3.646 2.67 4.498 4.498h24.003c.853-1.828 2.67-3.646 4.499-4.498v-9.003Zm0 11.3V27h-2.201a8.29 8.29 0 0 1 1-1.201 8.29 8.29 0 0 1 1.201-1Zm-1.201-14.597a8.29 8.29 0 0 1-1-1.201H36v2.201a8.29 8.29 0 0 1-1.201-1ZM4.201 25.799c.403.403.735.81 1 1.201H3v-2.201c.39.265.798.597 1.201 1ZM3 13.498c1.828-.852 3.646-2.67 4.498-4.498C7.816 8.318 8 7.635 8 7H2a1 1 0 0 0-1 1v6c.635 0 1.318-.184 2-.502Zm0-2.297c.39-.265.798-.597 1.201-1s.735-.81 1-1.201H3v2.201Z" clip-rule="evenodd"/><path fill="#620F12" fill-rule="evenodd" d="M19.5 12a1 1 0 0 1 1 1v.07c.732.106 1.41.327 1.971.648C23.253 14.164 24 14.934 24 16a1 1 0 1 1-2 0c0-.039-.036-.269-.521-.546a3.395 3.395 0 0 0-.979-.354v1.95c.373.04.806.113 1.232.244.487.15 1.043.4 1.489.833.472.46.779 1.09.779 1.873 0 .784-.307 1.413-.78 1.873-.445.433-1 .683-1.488.833a6.83 6.83 0 0 1-1.232.244V23a1 1 0 1 1-2 0v-.07c-.732-.106-1.41-.327-1.971-.648C15.747 21.836 15 21.066 15 20a1 1 0 1 1 2 0c0 .039.036.269.521.546.257.147.59.272.979.354v-1.95a6.682 6.682 0 0 1-1.232-.244c-.487-.15-1.043-.4-1.489-.833A2.548 2.548 0 0 1 15 16c0-.784.307-1.413.78-1.873.445-.433 1-.683 1.488-.833a6.83 6.83 0 0 1 1.232-.244V13a1 1 0 0 1 1-1Zm-1 3.066a4.28 4.28 0 0 0-.643.14c-.325.1-.55.225-.683.354A.553.553 0 0 0 17 16c0 .216.068.337.174.44.133.129.358.254.683.354.212.066.433.11.643.14v-1.869Zm2 4v1.869a4.3 4.3 0 0 0 .643-.14c.325-.1.55-.226.683-.356A.553.553 0 0 0 22 20a.553.553 0 0 0-.174-.44c-.133-.129-.358-.254-.683-.354a4.3 4.3 0 0 0-.643-.14Z" clip-rule="evenodd"/></svg>